<svg width="20" height="21" viewBox="0 0 20 21" fill="none" xmlns="http://www.w3.org/2000/svg">
<path d="M8.33333 18.8334C8.79357 18.8334 9.16667 18.4603 9.16667 18C9.16667 17.5398 8.79357 17.1667 8.33333 17.1667C7.8731 17.1667 7.5 17.5398 7.5 18C7.5 18.4603 7.8731 18.8334 8.33333 18.8334Z" stroke="#1E0E62" stroke-width="1.5" stroke-linecap="round" stroke-linejoin="round"/>
<path d="M15.8333 18.8334C16.2936 18.8334 16.6667 18.4603 16.6667 18C16.6667 17.5398 16.2936 17.1667 15.8333 17.1667C15.3731 17.1667 15 17.5398 15 18C15 18.4603 15.3731 18.8334 15.8333 18.8334Z" stroke="#1E0E62" stroke-width="1.5" stroke-linecap="round" stroke-linejoin="round"/>
<path d="M1.66663 3H4.69693L6.72723 12.6703C6.79651 13.0028 6.98625 13.3015 7.26325 13.5141C7.54025 13.7266 7.88685 13.8396 8.24238 13.8331H15.606C15.9616 13.8396 16.3082 13.7266 16.5852 13.5141C16.8622 13.3015 17.0519 13.0028 17.1212 12.6703L18.3333 6.61102H5.45451" stroke="#1E0E62" stroke-width="1.5" stroke-linecap="round" stroke-linejoin="round"/>
</svg>
