<svg width="24" height="22" viewBox="0 0 24 22" fill="none" xmlns="http://www.w3.org/2000/svg">
<path d="M10 20.1667C10.5523 20.1667 11 19.7563 11 19.25C11 18.7437 10.5523 18.3333 10 18.3333C9.44772 18.3333 9 18.7437 9 19.25C9 19.7563 9.44772 20.1667 10 20.1667Z" stroke="#06005B" stroke-width="1.5" stroke-linecap="round" stroke-linejoin="round"/>
<path d="M19 20.1667C19.5523 20.1667 20 19.7563 20 19.25C20 18.7437 19.5523 18.3333 19 18.3333C18.4477 18.3333 18 18.7437 18 19.25C18 19.7563 18.4477 20.1667 19 20.1667Z" stroke="#06005B" stroke-width="1.5" stroke-linecap="round" stroke-linejoin="round"/>
<path d="M2 2.75H5.63636L8.07273 13.3874C8.15586 13.7531 8.38355 14.0816 8.71595 14.3155C9.04835 14.5493 9.46427 14.6735 9.89091 14.6664H18.7273C19.1539 14.6735 19.5698 14.5493 19.9022 14.3155C20.2346 14.0816 20.4623 13.7531 20.5455 13.3874L22 6.72213H6.54545" stroke="#06005B" stroke-width="1.5" stroke-linecap="round" stroke-linejoin="round"/>
</svg>
