<svg width="4" height="8" viewBox="0 0 4 8" fill="none" xmlns="http://www.w3.org/2000/svg">
<path d="M0.76 0.76C0.76 0.546667 0.853334 0.44 1.04 0.44C1.14667 0.44 1.24667 0.493333 1.34 0.6L3.5 2.66C3.64667 2.79333 3.74 2.90667 3.78 3C3.83333 3.10667 3.86 3.22667 3.86 3.36V4.94C3.86 5.06 3.83333 5.17333 3.78 5.28C3.74 5.38667 3.64667 5.50667 3.5 5.64L1.34 7.68C1.24667 7.78667 1.14667 7.84 1.04 7.84C0.853334 7.84 0.76 7.74 0.76 7.54V6.58C0.76 6.47333 0.766667 6.36 0.780001 6.24C0.793334 6.12 0.833334 6.00667 0.900001 5.9L1.86 4.14L0.900001 2.4C0.833334 2.29333 0.793334 2.18 0.780001 2.06C0.766667 1.94 0.76 1.82 0.76 1.7V0.76Z" fill="#E93A7D"/>
</svg>
