<svg width="27" height="20" viewBox="0 0 27 20" fill="none" xmlns="http://www.w3.org/2000/svg">
<path d="M4.13723 4.33936H2.98438V15.8679H4.13723V4.33936Z" fill="black"/>
<path d="M5.78419 4.33936H5.20776V15.8679H5.78419V4.33936Z" fill="black"/>
<path d="M8.58399 4.33936H6.65308V15.8679H8.58399V4.33936Z" fill="black"/>
<path d="M11.1632 4.33936H9.29907V15.8679H11.1632V4.33936Z" fill="black"/>
<path d="M12.4542 4.33936H11.8778V15.8679H12.4542V4.33936Z" fill="black"/>
<path d="M14.7052 4.33936H13.5524V15.8679H14.7052V4.33936Z" fill="black"/>
<path d="M16.6654 4.33936H16.0383V15.8679H16.6654V4.33936Z" fill="black"/>
<path d="M19.5886 4.33936H17.5625V15.8679H19.5886V4.33936Z" fill="black"/>
<path d="M22.237 4.33936H20.4585V15.8679H22.237V4.33936Z" fill="black"/>
<path d="M23.8424 4.33936H23.2996V15.8679H23.8424V4.33936Z" fill="black"/>
<path d="M1.5528 4.95588H0.575806V1.62335C0.575806 1.24625 0.882601 0.939453 1.2597 0.939453H4.59225V1.91645H1.5528V4.95588Z" fill="black"/>
<path d="M26.2509 4.95588H25.2739V1.91645H22.2345V0.939453H25.567C25.9441 0.939453 26.2509 1.24625 26.2509 1.62335V4.95588Z" fill="black"/>
<path d="M4.59225 19.2679H1.2597C0.882601 19.2679 0.575806 18.9611 0.575806 18.584V15.2515H1.5528V18.2909H4.59225V19.2679Z" fill="black"/>
<path d="M25.567 19.2679H22.2345V18.2909H25.2739V15.2515H26.2509V18.584C26.2509 18.9611 25.9441 19.2679 25.567 19.2679Z" fill="black"/>
</svg>
