<svg width="35" height="14" viewBox="0 0 35 14" fill="none" xmlns="http://www.w3.org/2000/svg">
<path d="M5.43107 3.79733C5.81185 3.67038 6.21919 3.60145 6.64304 3.60145C8.4928 3.60145 10.0357 4.91217 10.3897 6.65335L13.011 6.12019C12.4095 3.16094 9.78734 0.93335 6.64304 0.93335C5.92315 0.93335 5.23022 1.05034 4.58337 1.26584L5.43107 3.79733Z" fill="#FFF200"/>
<path d="M2.31165 12.3733L3.88112 10.3126C3.18055 9.59201 2.73838 8.54004 2.73838 7.36745C2.73838 6.19573 3.18014 5.14375 3.88051 4.42374L2.31021 2.36328C1.11979 3.5875 0.369629 5.37574 0.369629 7.36745C0.369629 9.36019 1.12089 11.1491 2.31165 12.3733Z" fill="#00A4E0"/>
<path d="M10.3905 8.08325C10.0354 9.82415 8.49338 11.1332 6.64525 11.1332C6.22123 11.1332 5.81308 11.0641 5.43227 10.9368L4.58337 13.4695C5.23122 13.6861 5.92437 13.8033 6.64525 13.8033C9.78667 13.8033 12.4071 11.5772 13.011 8.61907L10.3905 8.08325Z" fill="#EF4123"/>
<path fill-rule="evenodd" clip-rule="evenodd" d="M25.6226 2.36328V9.68666L26.915 10.2134L26.3036 11.6579L25.0255 11.1355C24.7381 11.0129 24.5436 10.8262 24.3959 10.6154C24.254 10.3996 24.1488 10.1047 24.1488 9.70681V2.36328H25.6226ZM15.8207 7.80623C15.8528 5.71196 17.6067 4.04022 19.7349 4.0723C21.5413 4.10016 23.0379 5.34426 23.431 6.99896L16.4447 9.9351C16.0389 9.32505 15.8082 8.59113 15.8207 7.80623ZM17.4192 8.09984C17.4096 8.01197 17.4028 7.92188 17.4054 7.83097C17.4255 6.5971 18.458 5.61253 19.7119 5.63298C20.3944 5.64194 21.0005 5.94926 21.4102 6.42491L17.4192 8.09984ZM21.263 9.45949C20.842 9.86224 20.271 10.1076 19.6405 10.0988C19.2084 10.0917 18.808 9.96448 18.4676 9.75251L17.6236 11.0748C18.2016 11.4341 18.8831 11.6467 19.6178 11.6579C20.6874 11.6735 21.6622 11.2604 22.371 10.5782L21.263 9.45949ZM31.0014 5.63295C30.7496 5.63295 30.5077 5.67296 30.2816 5.74756L29.7788 4.26579C30.1626 4.13976 30.5736 4.0713 31.0014 4.0713C32.868 4.0713 34.4252 5.37512 34.7823 7.10709L33.2255 7.41916C33.0158 6.39984 32.0997 5.63295 31.0014 5.63295ZM28.4454 10.7061L29.4973 9.53648C29.0275 9.12751 28.7317 8.53021 28.7317 7.86445C28.7317 7.19935 29.0275 6.60234 29.4969 6.19367L28.4442 5.02403C27.6462 5.71898 27.1434 6.73445 27.1434 7.86445C27.1434 8.99586 27.6466 10.0109 28.4454 10.7061ZM31.0013 10.0968C32.0986 10.0968 33.0146 9.33054 33.2256 8.31271L34.7818 8.6261C34.423 10.3562 32.8663 11.6583 31.0013 11.6583C30.5733 11.6583 30.1617 11.5896 29.7768 11.463L30.2809 9.9817C30.5073 10.0561 30.7494 10.0968 31.0013 10.0968Z" fill="black"/>
</svg>
