<svg width="19" height="18" viewBox="0 0 19 18" fill="none" xmlns="http://www.w3.org/2000/svg">
<path d="M7.59997 13.3H11.12M11.12 13.3V3H1.99997V13.3H4.39997M11.12 13.3V5.93333H14.92L16.3108 7.27533C16.593 7.54795 16.8168 7.87155 16.9693 8.22764C17.1219 8.58373 17.2003 8.96534 17.2 9.35067V13.3H15.6M11.12 13.3H12.4" stroke="white" stroke-width="1.5" stroke-linecap="round" stroke-linejoin="round"/>
<path d="M6.00012 14.9001C6.88377 14.9001 7.60012 14.1837 7.60012 13.3001C7.60012 12.4164 6.88377 11.7001 6.00012 11.7001C5.11646 11.7001 4.40012 12.4164 4.40012 13.3001C4.40012 14.1837 5.11646 14.9001 6.00012 14.9001Z" stroke="white" stroke-width="1.5" stroke-linecap="round" stroke-linejoin="round"/>
<path d="M13.9996 14.9001C14.8833 14.9001 15.5996 14.1837 15.5996 13.3001C15.5996 12.4164 14.8833 11.7001 13.9996 11.7001C13.116 11.7001 12.3996 12.4164 12.3996 13.3001C12.3996 14.1837 13.116 14.9001 13.9996 14.9001Z" stroke="white" stroke-width="1.5" stroke-linecap="round" stroke-linejoin="round"/>
</svg>
