<svg width="20" height="20" viewBox="0 0 20 20" fill="none" xmlns="http://www.w3.org/2000/svg">
<path fill-rule="evenodd" clip-rule="evenodd" d="M10.0007 1.66663C7.73777 1.66663 7.45325 1.67655 6.56331 1.71625C5.67668 1.75595 5.07126 1.89821 4.54193 2.10332C3.99274 2.31506 3.52958 2.60288 3.06641 3.06605C2.60325 3.52921 2.31873 3.99569 2.10369 4.54156C1.89857 5.07089 1.75632 5.67631 1.71662 6.56625C1.67692 7.45288 1.66699 7.7374 1.66699 10.0003C1.66699 12.2632 1.67692 12.5477 1.71662 13.4376C1.75632 14.3243 1.89857 14.9297 2.10369 15.4623C2.31542 16.0115 2.60325 16.4747 3.06641 16.9378C3.52958 17.401 3.99605 17.6855 4.54193 17.9006C5.07126 18.1057 5.67668 18.2479 6.56662 18.2876C7.45656 18.3273 7.73777 18.3373 10.004 18.3373C12.2702 18.3373 12.5514 18.3273 13.4413 18.2876C14.328 18.2479 14.9334 18.1057 15.466 17.9006C16.0152 17.6888 16.4784 17.401 16.9415 16.9378C17.4047 16.4747 17.6892 16.0082 17.9042 15.4623C18.1094 14.933 18.2516 14.3276 18.2913 13.4376C18.331 12.5477 18.3409 12.2665 18.3409 10.0003C18.3409 7.73409 18.331 7.45288 18.2913 6.56294C18.2516 5.67631 18.1094 5.07089 17.9042 4.53825C17.6925 3.98907 17.4047 3.5259 16.9415 3.06274C16.4784 2.59957 16.0119 2.31506 15.466 2.10002C14.9367 1.8949 14.3313 1.75264 13.4413 1.71294C12.5481 1.67655 12.2636 1.66663 10.0007 1.66663ZM10.0009 5.72257C7.63871 5.72257 5.71989 7.63809 5.71989 10.0035C5.71989 12.369 7.63541 14.2845 10.0009 14.2845C12.3663 14.2845 14.2818 12.369 14.2818 10.0035C14.2818 7.63809 12.3663 5.72257 10.0009 5.72257ZM10.0009 12.7792C8.46579 12.7792 7.22187 11.5353 7.22187 10.0002C7.22187 8.46517 8.46579 7.22124 10.0009 7.22124C11.5359 7.22124 12.7798 8.46517 12.7798 10.0002C12.7798 11.5353 11.5359 12.7792 10.0009 12.7792ZM15.4495 5.55061C15.4495 6.10241 15.0022 6.54973 14.4504 6.54973C13.8986 6.54973 13.4513 6.10241 13.4513 5.55061C13.4513 4.99882 13.8986 4.5515 14.4504 4.5515C15.0022 4.5515 15.4495 4.99882 15.4495 5.55061Z" fill="white"/>
</svg>
