<svg width="107" height="24" viewBox="0 0 107 24" fill="none" xmlns="http://www.w3.org/2000/svg">
<g clip-path="url(#clip0_300_1146)">
<path d="M4.45131 18.3662C3.61697 18.3662 2.8631 18.1956 2.18968 17.8546C1.51626 17.5135 0.983306 17.056 0.590809 16.4823C0.196936 15.9083 0 15.264 0 14.5494C0 13.3851 0.45714 12.4579 1.37142 11.7679C2.2857 11.0779 3.48055 10.6163 4.95599 10.3831L8.25224 9.88185V9.35791C8.25224 8.65915 8.08384 8.11845 7.74705 7.73582C7.41025 7.35319 6.83277 7.16187 6.01459 7.16187C5.43728 7.16187 4.96811 7.28249 4.60707 7.52373C4.25383 7.75565 3.97363 8.08956 3.80093 8.48442C3.67233 8.7007 3.48786 8.80883 3.24751 8.80883H1.34744C1.1707 8.80883 1.03841 8.75891 0.950555 8.65906C0.862703 8.55921 0.818519 8.42611 0.818003 8.25976C0.833992 7.99391 0.942303 7.66949 1.14294 7.2865C1.34357 6.90351 1.6483 6.53345 2.05713 6.17631C2.46647 5.81864 2.99986 5.515 3.65729 5.26538C4.31472 5.01576 5.10874 4.89095 6.03935 4.89095C7.05008 4.89095 7.90427 5.01995 8.60193 5.27795C9.29959 5.53595 9.85696 5.88114 10.274 6.31352C10.688 6.74126 11.0009 7.26245 11.1885 7.83638C11.3828 8.43066 11.4804 9.0543 11.4773 9.68179V17.5181C11.4776 17.5968 11.4628 17.6749 11.4339 17.7477C11.405 17.8205 11.3624 17.8866 11.3087 17.9423C11.255 17.9979 11.1912 18.042 11.121 18.072C11.0508 18.102 10.9756 18.1172 10.8997 18.1169H8.95084C8.77428 18.1169 8.63391 18.0587 8.52972 17.9423C8.42591 17.8277 8.36969 17.6753 8.37319 17.5181V16.5446C8.16465 16.8441 7.88364 17.1352 7.53017 17.4178C7.1767 17.7004 6.74758 17.9292 6.24282 18.1041C5.7384 18.279 5.14123 18.3664 4.45131 18.3662ZM5.26931 15.9955C5.83064 15.9955 6.33996 15.8707 6.79727 15.6211C7.25458 15.3715 7.61561 14.9846 7.88037 14.4606C8.14548 13.9369 8.27803 13.2758 8.27803 12.4772V11.953L5.87198 12.3523C4.92521 12.5021 4.21939 12.7433 3.75451 13.076C3.28964 13.4087 3.05677 13.8163 3.05591 14.2988C3.05591 14.665 3.16413 14.9771 3.38058 15.2349C3.59703 15.4927 3.87374 15.6841 4.21071 15.8091C4.55057 15.9341 4.90872 15.9972 5.26931 15.9955Z" fill="#482BE7"/>
<path d="M20.2112 23.6065C19.0399 23.6065 18.0771 23.4485 17.3229 23.1324C16.5686 22.8162 15.9755 22.4336 15.5435 21.9844C15.1102 21.5355 14.8015 21.0905 14.6172 20.6493C14.4329 20.2082 14.3325 19.863 14.3162 19.6138C14.3002 19.4474 14.3524 19.3018 14.4727 19.177C14.5268 19.1177 14.5921 19.0704 14.6645 19.0382C14.7369 19.006 14.8148 18.9895 14.8936 18.9898H16.9871C17.1472 18.9898 17.2759 19.0272 17.3721 19.1021C17.4683 19.177 17.5485 19.3142 17.6127 19.5137C17.7235 19.7566 17.8522 19.9901 17.9977 20.2123C18.158 20.4619 18.4025 20.6741 18.7314 20.8489C19.0603 21.0236 19.5135 21.1109 20.091 21.1107C20.7004 21.1107 21.2137 21.0192 21.6308 20.8363C22.0479 20.6533 22.3647 20.3456 22.5814 19.913C22.798 19.4803 22.9062 18.8814 22.906 18.1163V16.4196C22.5211 16.9023 22.0278 17.2933 21.426 17.5926C20.8243 17.892 20.0825 18.0417 19.2005 18.0417C18.35 18.0417 17.6081 17.8961 16.9747 17.6049C16.3414 17.3138 15.8161 16.9062 15.3988 16.3821C14.9815 15.8583 14.6647 15.2384 14.4482 14.5226C14.2318 13.8067 14.1075 13.0165 14.0753 12.1521C14.0594 11.7028 14.0594 11.2536 14.0753 10.8045C14.1073 9.97304 14.2316 9.19948 14.4482 8.48378C14.6649 7.76808 14.9817 7.1401 15.3988 6.59985C15.8157 6.05942 16.341 5.63935 16.9747 5.33962C17.6084 5.0399 18.3504 4.89013 19.2005 4.8903C20.1148 4.8903 20.8847 5.06923 21.5104 5.42708C22.136 5.78493 22.6493 6.22988 23.0502 6.76193V5.76434C23.0502 5.5814 23.1063 5.43172 23.2186 5.31528C23.2717 5.2587 23.3354 5.21398 23.4058 5.1839C23.4761 5.15382 23.5517 5.139 23.6278 5.14037H25.5767C25.6527 5.13907 25.7283 5.15392 25.7986 5.184C25.8689 5.21408 25.9326 5.25876 25.9857 5.31528C26.0978 5.43189 26.1539 5.58158 26.1541 5.76434L26.1783 17.7922C26.1783 18.99 25.9617 20.0214 25.5284 20.8866C25.0952 21.7517 24.4419 22.4213 23.5685 22.8954C22.6928 23.3693 21.5736 23.6064 20.2112 23.6065ZM20.0907 15.3958C20.7483 15.3958 21.2777 15.2461 21.6788 14.9467C22.0768 14.6512 22.3855 14.2444 22.569 13.7737C22.7581 13.3058 22.8719 12.8089 22.9058 12.3027C22.9218 12.0868 22.9298 11.8123 22.93 11.4792C22.9302 11.1462 22.9221 10.8801 22.9058 10.6809C22.8747 10.1698 22.7609 9.66783 22.569 9.196C22.381 8.72822 22.0731 8.32273 21.6788 8.0235C21.2775 7.71593 20.7482 7.56205 20.0907 7.56187C19.4333 7.5617 18.9039 7.71557 18.5027 8.0235C18.105 8.32649 17.8068 8.749 17.6486 9.23371C17.4803 9.73295 17.3799 10.2819 17.3476 10.8807C17.3154 11.2876 17.3154 11.6966 17.3476 12.1035C17.3749 12.66 17.4762 13.21 17.6486 13.7379C17.8169 14.2455 18.1016 14.649 18.5027 14.9483C18.9038 15.2477 19.4331 15.3971 20.0907 15.3966V15.3958Z" fill="#482BE7"/>
<path d="M34.7683 18.3662C32.9877 18.3662 31.5761 17.8339 30.5333 16.7692C29.4906 15.7046 28.9292 14.1907 28.8491 12.2274C28.8328 12.0614 28.8248 11.8493 28.8251 11.5911C28.8227 11.387 28.8307 11.183 28.8491 10.9797C28.9131 9.71576 29.1898 8.63027 29.6792 7.72325C30.1687 6.81624 30.8464 6.11756 31.7124 5.62724C32.5785 5.13673 33.5972 4.8913 34.7683 4.89095C36.0675 4.89095 37.1583 5.16963 38.0406 5.727C38.9229 6.28437 39.5886 7.05792 40.0377 8.04767C40.4867 9.03777 40.7113 10.1815 40.7113 11.4788V12.003C40.7126 12.0819 40.6984 12.1602 40.6694 12.2332C40.6404 12.3061 40.5974 12.3721 40.5429 12.4272C40.4304 12.5438 40.2861 12.602 40.1099 12.6018H32.1214V12.8016C32.1372 13.3841 32.2455 13.9205 32.4463 14.4109C32.6471 14.9012 32.9439 15.2963 33.3365 15.5962C33.7294 15.8958 34.1986 16.0455 34.7441 16.0455C35.1931 16.0455 35.5702 15.9748 35.8752 15.8334C36.1801 15.692 36.4287 15.5298 36.621 15.3467C36.8133 15.1641 36.9497 15.0144 37.03 14.8976C37.1744 14.6977 37.2907 14.5771 37.3789 14.5358C37.4671 14.4944 37.5994 14.4736 37.7758 14.4734H39.8453C40.0055 14.4734 40.1378 14.5234 40.2422 14.6232C40.2924 14.6694 40.3308 14.7278 40.3539 14.7931C40.377 14.8585 40.384 14.9288 40.3745 14.9976C40.3585 15.264 40.2262 15.5884 39.9776 15.9709C39.729 16.3534 39.3721 16.7278 38.9068 17.0942C38.4414 17.4604 37.8599 17.7635 37.1623 18.0035C36.4646 18.2435 35.6666 18.3644 34.7683 18.3662ZM32.1214 10.5058H37.439V10.4307C37.439 9.78182 37.3347 9.21197 37.1262 8.72111C36.9176 8.23025 36.6129 7.84762 36.212 7.57321C35.8107 7.29881 35.3293 7.1616 34.7678 7.1616C34.2063 7.1616 33.7249 7.29881 33.3237 7.57321C32.9226 7.84779 32.6217 8.23043 32.4211 8.72111C32.2204 9.21179 32.1205 9.78164 32.1214 10.4307V10.5058Z" fill="#482BE7"/>
<path d="M43.8404 18.1166C43.7644 18.1171 43.6891 18.1019 43.6189 18.072C43.5486 18.042 43.4848 17.998 43.431 17.9423C43.3773 17.8867 43.3347 17.8205 43.3057 17.7477C43.2767 17.6749 43.2619 17.5969 43.2622 17.5181V5.73957C43.2619 5.66076 43.2767 5.58267 43.3056 5.5098C43.3346 5.43694 43.3771 5.37075 43.4309 5.31505C43.4847 5.25934 43.5485 5.21524 43.6188 5.18528C43.6891 5.15531 43.7644 5.14009 43.8404 5.14048H45.8134C45.8894 5.14019 45.9646 5.1555 46.0348 5.18551C46.105 5.21552 46.1688 5.25964 46.2224 5.31533C46.2761 5.37102 46.3186 5.43718 46.3475 5.50999C46.3764 5.5828 46.3912 5.66083 46.3908 5.73957V6.76256C46.8079 6.23034 47.3413 5.78539 47.991 5.42772C48.6407 5.07005 49.4468 4.89112 50.4092 4.89095C51.3872 4.89095 52.2374 5.1197 52.9596 5.57722C53.6819 6.03474 54.2393 6.67939 54.632 7.51116C55.0247 8.34329 55.2212 9.34177 55.2215 10.5066V17.5181C55.2218 17.5968 55.2071 17.6749 55.1782 17.7477C55.1492 17.8205 55.1067 17.8866 55.053 17.9423C54.9993 17.998 54.9355 18.0421 54.8653 18.0721C54.795 18.102 54.7198 18.1173 54.6439 18.1169H52.5266C52.4507 18.1173 52.3754 18.1021 52.3051 18.0722C52.2348 18.0423 52.1709 17.9982 52.1172 17.9425C52.0634 17.8868 52.0208 17.8207 51.9919 17.7478C51.9629 17.675 51.9482 17.5969 51.9485 17.5181V10.6553C51.9485 9.69088 51.7198 8.93399 51.2625 8.38465C50.8052 7.83531 50.1433 7.56081 49.2768 7.56117C48.4426 7.56117 47.777 7.83566 47.2798 8.38465C46.7826 8.93364 46.5339 9.69052 46.5337 10.6553V17.5181C46.534 17.5968 46.5193 17.6748 46.4904 17.7476C46.4615 17.8204 46.419 17.8866 46.3653 17.9422C46.3116 17.9979 46.2478 18.042 46.1776 18.072C46.1074 18.102 46.0322 18.1172 45.9563 18.1169L43.8404 18.1166Z" fill="#482BE7"/>
<path d="M63.6901 18.3662C62.5352 18.3662 61.5208 18.1416 60.6471 17.6925C59.7734 17.2433 59.0917 16.5904 58.6018 15.7337C58.1124 14.8778 57.8437 13.8422 57.7957 12.6267C57.7797 12.3771 57.7717 12.0486 57.7717 11.6411C57.7717 11.2337 57.7797 10.8968 57.7957 10.6304C57.8438 9.41622 58.1126 8.38065 58.6018 7.52373C59.0911 6.66682 59.7729 6.01388 60.6471 5.56492C61.5213 5.1156 62.5357 4.89095 63.6901 4.89095C64.7165 4.89095 65.5907 5.03653 66.3128 5.32769C67.0349 5.61886 67.628 5.99329 68.0922 6.45099C68.5574 6.90868 68.9063 7.38279 69.1389 7.87329C69.3715 8.3638 69.4958 8.80883 69.5118 9.20841C69.5275 9.39152 69.4754 9.5371 69.3555 9.64515C69.2395 9.75163 69.0893 9.80941 68.9344 9.80723H66.8177C66.6573 9.80723 66.5328 9.76604 66.4448 9.6826C66.3569 9.59915 66.2723 9.47479 66.1921 9.30817C65.9514 8.64293 65.6346 8.17293 65.2418 7.89816C64.849 7.6234 64.3476 7.4862 63.7378 7.48656C62.9356 7.48656 62.2981 7.74857 61.8251 8.2726C61.3522 8.79662 61.0994 9.6242 61.0669 10.7553C61.0344 11.3371 61.0344 11.9203 61.0669 12.5021C61.0989 13.65 61.3516 14.4817 61.8249 14.9974C62.2982 15.513 62.9357 15.7709 63.7376 15.7711C64.3632 15.7711 64.8685 15.6338 65.2534 15.3592C65.6383 15.0847 65.9511 14.6147 66.1918 13.9492C66.272 13.7832 66.3562 13.6584 66.4446 13.5748C66.5329 13.4912 66.6573 13.4496 66.8177 13.4502H68.9352C69.0901 13.4482 69.2402 13.5061 69.3563 13.6125C69.4767 13.7207 69.5287 13.8663 69.5126 14.0493C69.4963 14.3486 69.4201 14.6854 69.2841 15.0597C69.1481 15.434 68.9317 15.8166 68.6348 16.2076C68.3377 16.5988 67.9647 16.9565 67.5158 17.2806C67.0669 17.6048 66.5254 17.8668 65.8912 18.0666C65.2576 18.2665 64.5239 18.3664 63.6901 18.3662Z" fill="#482BE7"/>
<path d="M72.4962 2.99543C72.4203 2.99575 72.345 2.98048 72.2748 2.9505C72.2046 2.92052 72.1408 2.87643 72.0871 2.82077C72.0334 2.7651 71.9909 2.69896 71.962 2.62616C71.933 2.55337 71.9183 2.47535 71.9185 2.39661V0.598804C71.9172 0.519903 71.9315 0.441559 71.9605 0.368606C71.9895 0.295652 72.0326 0.229635 72.0872 0.174627C72.1403 0.118108 72.2039 0.073455 72.2743 0.0434193C72.3446 0.0133837 72.4201 -0.00139904 72.4962 -1.82762e-05H74.6856C74.862 -1.82762e-05 75.0064 0.0585534 75.1188 0.174627C75.1732 0.229725 75.2163 0.295764 75.2452 0.368701C75.2742 0.441638 75.2885 0.519937 75.2872 0.598804V2.39554C75.2885 2.47442 75.2743 2.55275 75.2453 2.6257C75.2164 2.69865 75.1733 2.76467 75.1188 2.81972C75.0064 2.93632 74.862 2.99454 74.6856 2.99436L72.4962 2.99543ZM72.5924 18.1176C72.5164 18.118 72.4411 18.1027 72.3709 18.0726C72.3006 18.0426 72.2368 17.9984 72.1831 17.9427C72.1294 17.8869 72.087 17.8207 72.0581 17.7478C72.0292 17.6749 72.0146 17.5968 72.015 17.518V5.73948C72.0147 5.66074 72.0294 5.58271 72.0583 5.5099C72.0872 5.43709 72.1297 5.37093 72.1834 5.31524C72.2371 5.25955 72.3008 5.21543 72.371 5.18542C72.4412 5.15541 72.5165 5.1401 72.5924 5.14039H74.5894C74.7658 5.14039 74.9062 5.19869 75.0105 5.3153C75.114 5.4301 75.1701 5.58234 75.1668 5.73948V17.518C75.1702 17.6752 75.1141 17.8275 75.0105 17.9422C74.906 18.0588 74.7656 18.117 74.5894 18.1168L72.5924 18.1176Z" fill="#482BE7"/>
<path d="M81.9999 18.3662C81.1657 18.3662 80.4118 18.1956 79.738 17.8546C79.0642 17.5135 78.5309 17.056 78.1381 16.4823C77.7449 15.9083 77.5484 15.2637 77.5486 14.5483C77.5486 13.384 78.0058 12.4569 78.9203 11.7668C79.8347 11.0768 81.0296 10.6152 82.5048 10.382L85.8011 9.88292V9.35791C85.8011 8.65915 85.6327 8.11845 85.2959 7.73582C84.9591 7.35319 84.3816 7.16187 83.5634 7.16187C82.9861 7.16187 82.5169 7.28249 82.1559 7.52373C81.8027 7.75565 81.5225 8.08956 81.3498 8.48442C81.2213 8.7007 81.0369 8.80883 80.7964 8.80883H78.8955C78.7189 8.80883 78.5866 8.75891 78.4986 8.65906C78.4106 8.55921 78.3665 8.42611 78.3663 8.25976C78.382 7.99391 78.4902 7.66949 78.691 7.2865C78.8918 6.90351 79.1966 6.53345 79.6055 6.17631C80.0145 5.81864 80.5478 5.515 81.2056 5.26538C81.8634 5.01576 82.6574 4.89095 83.5877 4.89095C84.5981 4.89095 85.4522 5.01995 86.15 5.27795C86.8478 5.53595 87.4053 5.88114 87.8224 6.31352C88.2365 6.74112 88.5496 7.26235 88.7371 7.83638C88.9314 8.43063 89.0291 9.05429 89.0259 9.68179V17.5181C89.0262 17.5968 89.0115 17.6748 88.9826 17.7476C88.9537 17.8204 88.9111 17.8866 88.8575 17.9422C88.8038 17.9979 88.74 18.042 88.6698 18.072C88.5996 18.102 88.5244 18.1172 88.4485 18.1169H86.4994C86.3227 18.1169 86.1823 18.0587 86.0783 17.9423C85.9746 17.8276 85.9184 17.6753 85.922 17.5181V16.5446C85.7133 16.8441 85.4326 17.1352 85.0798 17.4178C84.727 17.7004 84.298 17.9292 83.7927 18.1041C83.2871 18.279 82.6895 18.3664 81.9999 18.3662ZM82.8179 15.9955C83.379 15.9955 83.8884 15.8707 84.3458 15.6211C84.8033 15.3715 85.1644 14.9846 85.4289 14.4606C85.6937 13.9366 85.8261 13.2754 85.8261 12.4769V11.9527L83.4198 12.352C82.4742 12.5018 81.7685 12.743 81.3026 13.0757C80.8367 13.4085 80.6041 13.8161 80.6047 14.2985C80.6047 14.6648 80.7131 14.9768 80.9297 15.2346C81.1463 15.4924 81.423 15.6838 81.7598 15.8088C82.0995 15.9339 82.4575 15.997 82.8179 15.9955Z" fill="#482BE7"/>
<path d="M100.484 0.0159458H98.7548C98.6806 0.0159106 98.6071 0.0310417 98.5385 0.0604745C98.4699 0.0899073 98.4076 0.133065 98.3551 0.187482C98.3026 0.2419 98.261 0.30651 98.2326 0.377622C98.2041 0.448735 98.1895 0.524956 98.1895 0.601931V6.80439L94.0237 0.278315C93.972 0.197553 93.9019 0.13132 93.8196 0.0855354C93.7372 0.0397509 93.6452 0.015842 93.5518 0.0159458H91.8239C91.7497 0.0159106 91.6762 0.0310417 91.6076 0.0604745C91.5391 0.0899073 91.4767 0.133065 91.4243 0.187482C91.3718 0.2419 91.3301 0.30651 91.3017 0.377622C91.2733 0.448735 91.2587 0.524956 91.2587 0.601931V11.5511C91.2587 11.6281 91.2733 11.7043 91.3017 11.7754C91.3301 11.8465 91.3718 11.9111 91.4243 11.9656C91.4767 12.02 91.5391 12.0631 91.6076 12.0926C91.6762 12.122 91.7497 12.1371 91.8239 12.1371H93.5518C93.626 12.1371 93.6994 12.1219 93.768 12.0925C93.8365 12.063 93.8988 12.0199 93.9513 11.9655C94.0038 11.9111 94.0454 11.8465 94.0738 11.7754C94.1022 11.7043 94.1168 11.6281 94.1168 11.5511V5.33608L98.2834 11.8747C98.3349 11.9556 98.4049 12.0219 98.4871 12.0678C98.5694 12.1137 98.6614 12.1377 98.7548 12.1376H100.484C100.634 12.1376 100.777 12.0759 100.883 11.966C100.989 11.8561 101.049 11.7071 101.049 11.5516V0.601931C101.049 0.446518 100.989 0.29747 100.883 0.187577C100.777 0.0776833 100.634 0.0159458 100.484 0.0159458Z" fill="#E93A7D"/>
<path d="M106.102 0.00488306H102.947C102.797 0.00488306 102.653 0.0666206 102.547 0.176514C102.441 0.286408 102.382 0.435455 102.382 0.590868V2.22713C102.382 2.30409 102.397 2.38028 102.425 2.45138C102.453 2.52247 102.495 2.58707 102.547 2.64149C102.653 2.75138 102.797 2.81312 102.947 2.81312H103.793V11.5513C103.793 11.6282 103.807 11.7044 103.836 11.7755C103.864 11.8466 103.906 11.9112 103.958 11.9656C104.011 12.02 104.073 12.0632 104.141 12.0927C104.21 12.1221 104.283 12.1373 104.358 12.1373H106.102C106.176 12.1373 106.25 12.1222 106.318 12.0927C106.387 12.0633 106.449 12.0201 106.502 11.9657C106.554 11.9113 106.596 11.8467 106.624 11.7756C106.653 11.7045 106.667 11.6282 106.667 11.5513V0.590868C106.667 0.51387 106.653 0.437627 106.624 0.366498C106.596 0.295368 106.554 0.230746 106.502 0.176325C106.449 0.121904 106.387 0.0787519 106.318 0.0493349C106.249 0.0199179 106.176 0.00481277 106.102 0.00488306Z" fill="#E93A7D"/>
<path d="M31.0537 3.72934C30.813 3.72934 30.6926 3.6212 30.6926 3.40492C30.6926 3.27208 30.7728 3.13069 30.9332 2.98074L33.2671 0.485423C33.4273 0.302486 33.5677 0.190157 33.6882 0.148434C33.8164 0.105778 33.9504 0.0847389 34.0851 0.0861182H35.3845C35.5235 0.0828296 35.6619 0.103898 35.7941 0.148434C35.906 0.190157 36.0423 0.302486 36.2031 0.485423L38.5611 2.98074C38.7054 3.13051 38.7775 3.27191 38.7775 3.40492C38.7775 3.6212 38.6572 3.72934 38.4165 3.72934H37.5263C37.3971 3.72937 37.2682 3.71683 37.1412 3.69189C37.0143 3.66764 36.8922 3.62125 36.7802 3.55469L34.7349 2.23215L32.6899 3.55469C32.584 3.62471 32.4652 3.67108 32.341 3.69082C32.2099 3.71538 32.0771 3.72791 31.9439 3.72827L31.0537 3.72934Z" fill="#E93A7D"/>
</g>
<defs>
<clipPath id="clip0_300_1146">
<rect width="106.667" height="23.6066" fill="white"/>
</clipPath>
</defs>
</svg>
