<svg width="48" height="14" viewBox="0 0 48 14" fill="none" xmlns="http://www.w3.org/2000/svg">
<g clip-path="url(#clip0_369_1430)">
<path d="M12.8793 0.564297L10.046 11.9654C9.61561 13.7307 8.22474 13.9964 6.90898 13.9964C5.59321 13.9964 4.20238 13.7265 3.74662 11.9654L0.913401 0.564297C0.913401 0.539754 0.888062 0.515215 0.888062 0.46613C0.890198 0.423822 0.901209 0.382379 0.920435 0.34434C0.939661 0.3063 0.96671 0.272462 0.999891 0.244895C1.03307 0.217328 1.0717 0.196614 1.11342 0.184016C1.15515 0.171417 1.19908 0.167201 1.24255 0.171625H3.87321C3.96554 0.171544 4.0548 0.203776 4.12457 0.262392C4.19435 0.321009 4.23996 0.402069 4.253 0.490672L6.63046 11.1072C6.6811 11.3036 6.73174 11.3772 6.90898 11.3772C7.08622 11.3772 7.13686 11.3036 7.1875 11.1072L9.56497 0.490672C9.57561 0.405457 9.61705 0.326656 9.68195 0.268248C9.74684 0.209841 9.83097 0.175606 9.91943 0.171625H12.5754C12.778 0.171625 12.9046 0.269794 12.9046 0.46613C12.9046 0.490672 12.8793 0.515212 12.8793 0.564297Z" fill="#E71C4D"/>
<path d="M23.7057 2.77084H20.6193V13.4831C20.6169 13.5799 20.5761 13.6722 20.5054 13.7407C20.4347 13.8093 20.3395 13.8488 20.2395 13.8512H17.7581C17.6582 13.8488 17.563 13.8093 17.4923 13.7407C17.4216 13.6722 17.3808 13.5799 17.3783 13.4831V2.77084H14.2919C14.1946 2.77404 14.0999 2.73965 14.0287 2.67523C13.9574 2.6108 13.9155 2.52162 13.9121 2.42726V0.539205C13.9155 0.444844 13.9574 0.355656 14.0287 0.291233C14.0999 0.226809 14.1946 0.192419 14.2919 0.195617H23.7022C23.8023 0.19173 23.9001 0.225198 23.9754 0.289121C24.0508 0.353045 24.098 0.442551 24.1073 0.539205V2.42726C24.0981 2.52331 24.0513 2.61232 23.9767 2.67615C23.9021 2.73999 23.8052 2.77385 23.7057 2.77084Z" fill="#E71C4D"/>
<path d="M33.6949 13.7554C32.4734 13.9398 31.2378 14.0219 30.0017 14.0008C27.5483 14.0008 25.3978 13.3881 25.3978 10.0529V3.94784C25.3978 0.588953 27.5736 -5.22287e-05 30.0253 -5.22287e-05C31.2526 -0.0216191 32.4796 0.0604926 33.6923 0.245363C33.9708 0.294447 34.0721 0.368078 34.0721 0.613499V2.32975C34.0697 2.42664 34.0289 2.51892 33.9582 2.58745C33.8875 2.65598 33.7923 2.69552 33.6923 2.69788H29.8533C28.9679 2.69788 28.6388 2.99239 28.6388 3.94869V5.61585H33.5465C33.6465 5.61821 33.7417 5.65776 33.8124 5.72629C33.8831 5.79483 33.9239 5.8871 33.9263 5.98399V7.72478C33.9239 7.82168 33.8831 7.91395 33.8124 7.98248C33.7417 8.05101 33.6465 8.09055 33.5465 8.09291H28.6388V10.0546C28.6388 11.0109 28.9679 11.3054 29.8533 11.3054H33.6949C33.7949 11.3077 33.8901 11.3473 33.9608 11.4158C34.0315 11.4844 34.0723 11.5766 34.0747 11.6735V13.3898C34.0773 13.6081 33.9761 13.7308 33.6949 13.7554Z" fill="#E71C4D"/>
<path d="M47.6348 13.829H44.6244C44.5223 13.8357 44.4204 13.8138 44.3308 13.7659C44.2411 13.718 44.1676 13.6463 44.1188 13.5591L41.6401 9.6848L39.4146 13.4854C39.288 13.7063 39.136 13.8536 38.9343 13.8536H36.1265C36.0909 13.8582 36.0548 13.8552 36.0206 13.8448C35.9864 13.8344 35.9549 13.817 35.9284 13.7936C35.9018 13.7702 35.8809 13.7415 35.867 13.7095C35.8531 13.6775 35.8466 13.6429 35.8479 13.6082C35.8489 13.5626 35.8668 13.519 35.8986 13.4854L39.8703 6.84045L35.8733 0.539057C35.8528 0.501359 35.8441 0.458761 35.8479 0.41635C35.8539 0.348939 35.8859 0.286189 35.9375 0.240679C35.9892 0.195168 36.0567 0.170255 36.1265 0.170928H39.1875C39.3901 0.170928 39.542 0.367263 39.6678 0.514516L42.0199 4.23815L44.145 0.514516C44.1891 0.422932 44.2561 0.34351 44.34 0.283492C44.4239 0.223475 44.522 0.184775 44.6252 0.170928H47.4331C47.4682 0.168756 47.5033 0.173433 47.5365 0.184687C47.5696 0.19594 47.6001 0.213541 47.626 0.236437C47.652 0.259332 47.673 0.287057 47.6877 0.317964C47.7024 0.348871 47.7106 0.38233 47.7117 0.41635C47.7117 0.465434 47.6863 0.489973 47.6863 0.539057L43.7652 7.03679L47.8383 13.4854C47.8785 13.543 47.8965 13.6126 47.8889 13.6818C47.8889 13.7554 47.7876 13.829 47.6348 13.829Z" fill="#E71C4D"/>
</g>
<defs>
<clipPath id="clip0_369_1430">
<rect width="47" height="14" fill="white" transform="translate(0.888916)"/>
</clipPath>
</defs>
</svg>
