<svg width="28" height="18" viewBox="0 0 28 18" fill="none" xmlns="http://www.w3.org/2000/svg">
<path d="M17.6362 15.7859H10.2119V2.18384H17.6362V15.7859Z" fill="#FF5F00"/>
<path d="M10.6876 8.98394C10.6876 6.22471 11.9549 3.76687 13.9284 2.18293C12.4852 1.02468 10.6639 0.333363 8.68451 0.333363C3.9985 0.333363 0.199951 4.2063 0.199951 8.98394C0.199951 13.7616 3.9985 17.6345 8.68451 17.6345C10.6639 17.6345 12.4852 16.9432 13.9284 15.785C11.9549 14.201 10.6876 11.7432 10.6876 8.98394Z" fill="#EB001B"/>
<path d="M27.6491 8.98394C27.6491 13.7616 23.8506 17.6345 19.1646 17.6345C17.1852 17.6345 15.3638 16.9432 13.9202 15.785C15.8942 14.201 17.1614 11.7432 17.1614 8.98394C17.1614 6.22471 15.8942 3.76687 13.9202 2.18293C15.3638 1.02468 17.1852 0.333363 19.1646 0.333363C23.8506 0.333363 27.6491 4.2063 27.6491 8.98394Z" fill="#F79E1B"/>
</svg>
