<svg width="19" height="18" viewBox="0 0 19 18" fill="none" xmlns="http://www.w3.org/2000/svg">
<path d="M5 10.5C4.58579 10.5 4.25 10.8358 4.25 11.25C4.25 11.6642 4.58579 12 5 12V10.5ZM7.625 12C8.03921 12 8.375 11.6642 8.375 11.25C8.375 10.8358 8.03921 10.5 7.625 10.5V12ZM4.25 5.25H14.75V3.75H4.25V5.25ZM15.5 6V12H17V6H15.5ZM14.75 12.75H4.25V14.25H14.75V12.75ZM3.5 12V6H2V12H3.5ZM4.25 12.75C3.83579 12.75 3.5 12.4142 3.5 12H2C2 13.2426 3.00736 14.25 4.25 14.25V12.75ZM15.5 12C15.5 12.4142 15.1642 12.75 14.75 12.75V14.25C15.9926 14.25 17 13.2426 17 12H15.5ZM14.75 5.25C15.1642 5.25 15.5 5.58579 15.5 6H17C17 4.75736 15.9926 3.75 14.75 3.75V5.25ZM4.25 3.75C3.00736 3.75 2 4.75736 2 6H3.5C3.5 5.58579 3.83579 5.25 4.25 5.25V3.75ZM2.75 8.25H16.25V6.75H2.75V8.25ZM5 12H7.625V10.5H5V12Z" fill="white"/>
</svg>
