<svg width="33" height="12" viewBox="0 0 33 12" fill="none" xmlns="http://www.w3.org/2000/svg">
<path d="M13.6515 11.1778V4.85187C13.6515 4.293 13.8777 3.75701 14.2802 3.36183C14.6828 2.96664 15.2288 2.74463 15.7982 2.74463L17.7007 2.74723C18.2686 2.74836 18.8128 2.9706 19.2139 3.36518C19.615 3.75977 19.8402 4.29445 19.8401 4.85187V6.19808C19.8401 6.75699 19.614 7.29301 19.2114 7.68825C18.8088 8.08348 18.2628 8.30557 17.6934 8.30565H15.0043" stroke="#898B8F" stroke-width="0.8" stroke-linecap="round" stroke-linejoin="round"/>
<path d="M20.3719 2.74414H21.1973C21.431 2.74414 21.6551 2.83526 21.8204 2.99747C21.9856 3.15967 22.0784 3.37966 22.0784 3.60905V8.33415" stroke="#898B8F" stroke-width="0.8" stroke-linecap="round" stroke-linejoin="round"/>
<path d="M23.6627 2.73999H24.4811C24.9021 2.73982 25.3059 2.90381 25.6037 3.19589L27.5182 5.07518C27.5772 5.13311 27.6471 5.17906 27.7242 5.21042C27.8012 5.24177 27.8838 5.25791 27.9672 5.25791C28.0506 5.25791 28.1332 5.24177 28.2103 5.21042C28.2873 5.17906 28.3573 5.13311 28.4162 5.07518L30.3237 3.20306C30.4711 3.05841 30.6461 2.9437 30.8387 2.86547C31.0312 2.78725 31.2376 2.74704 31.446 2.74715H32.1115" stroke="#898B8F" stroke-width="0.8" stroke-linecap="round" stroke-linejoin="round"/>
<path d="M23.6627 8.29255H24.4811C24.9021 8.29269 25.3059 8.1287 25.6037 7.83665L27.5182 5.95735C27.6373 5.84053 27.7988 5.7749 27.9672 5.7749C28.1356 5.7749 28.2971 5.84053 28.4162 5.95735L30.3237 7.82981C30.6215 8.12184 31.0251 8.28583 31.446 8.28571H32.1115" stroke="#898B8F" stroke-width="0.8" stroke-linecap="round" stroke-linejoin="round"/>
<path d="M8.77209 9.49322C8.57017 9.49394 8.3701 9.45537 8.18345 9.37975C7.9968 9.30412 7.82727 9.19294 7.68465 9.05263L6.11386 7.50972C6.0583 7.45757 5.98439 7.42847 5.90751 7.42847C5.83064 7.42847 5.75673 7.45757 5.70117 7.50972L4.12507 9.05686C3.98254 9.19738 3.81305 9.30879 3.6264 9.38463C3.43975 9.46048 3.23964 9.49927 3.03763 9.49876H2.7301L4.72055 11.4526C5.01907 11.745 5.42358 11.9093 5.84531 11.9093C6.26704 11.9093 6.67155 11.745 6.97008 11.4526L8.9645 9.49453L8.77209 9.49322Z" fill="#32BCAD"/>
<path d="M3.03796 4.04055C3.23997 4.04002 3.44009 4.0788 3.62674 4.15465C3.81339 4.2305 3.98288 4.34191 4.1254 4.48245L5.7015 6.02991C5.75629 6.08352 5.83049 6.11362 5.90785 6.11362C5.9852 6.11362 6.0594 6.08352 6.11419 6.02991L7.68465 4.48831C7.82706 4.3476 7.99651 4.23605 8.18319 4.16013C8.36986 4.08422 8.57004 4.04545 8.7721 4.04608H8.96119L6.96676 2.08831C6.81908 1.94328 6.64373 1.82824 6.45074 1.74975C6.25775 1.67126 6.05089 1.63086 5.842 1.63086C5.6331 1.63086 5.42624 1.67126 5.23325 1.74975C5.04026 1.82824 4.86492 1.94328 4.71723 2.08831L2.7301 4.04055H3.03796Z" fill="#32BCAD"/>
<path d="M10.6108 5.66581L9.4056 4.48275C9.37841 4.49366 9.34937 4.4994 9.32001 4.49968H8.77197C8.48679 4.50038 8.21342 4.61156 8.01129 4.80904L6.44083 6.34967C6.29939 6.48825 6.10772 6.56608 5.90789 6.56608C5.70805 6.56608 5.51638 6.48825 5.37494 6.34967L3.79851 4.80318C3.59644 4.60558 3.32306 4.49428 3.03783 4.4935H2.36506C2.33733 4.49288 2.30993 4.48748 2.28412 4.47754L1.07127 5.66581C0.77338 5.95886 0.606079 6.35593 0.606079 6.76991C0.606079 7.18389 0.77338 7.58097 1.07127 7.87401L2.28146 9.06196C2.30723 9.05183 2.33466 9.04642 2.36241 9.046H3.03783C3.32305 9.04518 3.59642 8.93389 3.79851 8.73631L5.37461 7.18918C5.65958 6.90978 6.15619 6.90978 6.44083 7.18918L8.01129 8.73045C8.21342 8.92794 8.48679 9.03911 8.77197 9.03981H9.32001C9.34938 9.04002 9.37844 9.04576 9.4056 9.05675L10.6108 7.87368C10.7586 7.72871 10.8757 7.55659 10.9557 7.36714C11.0357 7.1777 11.0768 6.97465 11.0768 6.76959C11.0768 6.56453 11.0357 6.36147 10.9557 6.17203C10.8757 5.98259 10.7586 5.81046 10.6108 5.66549" fill="#32BCAD"/>
<path d="M21.9011 2.01218L21.5269 1.64453C21.5048 1.62287 21.4873 1.59716 21.4754 1.56886C21.4634 1.54056 21.4573 1.51022 21.4573 1.47959C21.4573 1.44895 21.4634 1.41862 21.4754 1.39032C21.4873 1.36201 21.5048 1.3363 21.5269 1.31465L21.9011 0.947322C21.9458 0.903514 22.0063 0.878906 22.0695 0.878906C22.1326 0.878906 22.1932 0.903514 22.2378 0.947322L22.6117 1.31465C22.6338 1.3363 22.6513 1.36201 22.6632 1.39032C22.6752 1.41862 22.6813 1.44895 22.6813 1.47959C22.6813 1.51022 22.6752 1.54056 22.6632 1.56886C22.6513 1.59716 22.6338 1.62287 22.6117 1.64453L22.2362 2.01218C22.2141 2.03386 22.1879 2.05106 22.159 2.06279C22.1302 2.07453 22.0992 2.08057 22.068 2.08057C22.0367 2.08057 22.0058 2.07453 21.977 2.06279C21.9481 2.05106 21.9219 2.03386 21.8998 2.01218" fill="#32BCAD"/>
<path d="M15.2877 10.6402C15.188 10.6444 15.0892 10.6592 14.9927 10.6841V11.0697C15.0665 11.0951 15.1441 11.1078 15.2223 11.1075C15.4194 11.1075 15.5126 11.0423 15.5126 10.872C15.5126 10.7118 15.4363 10.6402 15.2877 10.6402ZM14.9264 11.3566V10.5936H14.9805L14.9861 10.6262C15.0866 10.5999 15.1895 10.5837 15.2933 10.5776C15.3652 10.5727 15.4366 10.593 15.4947 10.6349C15.561 10.689 15.5836 10.7763 15.5836 10.8714C15.5836 10.9665 15.5504 11.0648 15.4575 11.1166C15.3866 11.1513 15.3081 11.1684 15.2289 11.1664C15.1489 11.1659 15.0693 11.154 14.9927 11.1309V11.3553L14.9264 11.3566Z" fill="#898B8F"/>
<path d="M16.078 10.638C15.8813 10.638 15.7934 10.6985 15.7934 10.8688C15.7934 11.0333 15.88 11.1075 16.078 11.1075C16.2761 11.1075 16.3617 11.0476 16.3617 10.8776C16.3617 10.7132 16.2751 10.638 16.078 10.638ZM16.3315 11.1075C16.2651 11.1538 16.1782 11.1671 16.078 11.1671C15.9778 11.1671 15.8879 11.1528 15.8239 11.1075C15.7519 11.0577 15.7224 10.9773 15.7224 10.8734C15.7224 10.7695 15.7519 10.6888 15.8239 10.638C15.8879 10.5927 15.9759 10.5784 16.078 10.5784C16.1802 10.5784 16.2661 10.5927 16.3315 10.638C16.4045 10.6888 16.4327 10.7715 16.4327 10.8721C16.4327 10.9727 16.4035 11.0577 16.3315 11.1075Z" fill="#898B8F"/>
<path d="M17.2635 11.1513L17.0439 10.6886H17.0396L16.8233 11.1513H16.7626L16.5304 10.5935H16.6034L16.7981 11.0618H16.8028L17.0144 10.5935H17.0751L17.2921 11.0618H17.2967L17.4868 10.5935H17.5588L17.3246 11.1513H17.2635Z" fill="#898B8F"/>
<path d="M17.9817 10.6366C17.7993 10.6366 17.7376 10.7164 17.7263 10.832H18.2372C18.2315 10.705 18.1652 10.6366 17.9817 10.6366ZM17.9794 11.1671C17.8703 11.1671 17.7993 11.1515 17.7429 11.1052C17.6765 11.0489 17.6543 10.9672 17.6543 10.8734C17.6543 10.7796 17.6845 10.6887 17.7601 10.6347C17.8263 10.5938 17.9037 10.5742 17.9817 10.5783C18.0613 10.5736 18.1404 10.5925 18.209 10.6324C18.2909 10.6865 18.3068 10.7815 18.3068 10.8897H17.7246C17.7269 11.0046 17.7651 11.1062 17.9857 11.1062C18.0843 11.1037 18.1826 11.0928 18.2793 11.0737V11.1323C18.181 11.1521 18.0811 11.1636 17.9807 11.1665" fill="#898B8F"/>
<path d="M18.4976 11.1514V10.5936H18.5513L18.5569 10.6262C18.6774 10.5962 18.7338 10.5776 18.8396 10.5776H18.8475V10.6395H18.8316C18.7427 10.6395 18.6886 10.6516 18.5639 10.6835V11.1508L18.4976 11.1514Z" fill="#898B8F"/>
<path d="M19.2331 10.6366C19.0509 10.6366 18.9889 10.7164 18.9776 10.832H19.4885C19.4829 10.705 19.4165 10.6366 19.2331 10.6366ZM19.2307 11.1671C19.1216 11.1671 19.0509 11.1515 18.9945 11.1052C18.9282 11.0489 18.9056 10.9672 18.9056 10.8734C18.9056 10.7796 18.9362 10.6887 19.0115 10.6347C19.0776 10.5939 19.155 10.5742 19.2331 10.5783C19.3126 10.5736 19.3918 10.5925 19.4603 10.6324C19.5426 10.6865 19.5598 10.7815 19.5598 10.8897H18.9753C18.9776 11.0046 19.0158 11.1062 19.2364 11.1062C19.3351 11.1037 19.4335 11.0928 19.5303 11.0737V11.1323C19.432 11.1521 19.3321 11.1635 19.2317 11.1665" fill="#898B8F"/>
<path d="M20.2858 10.6752C20.212 10.65 20.1344 10.6373 20.0562 10.6378C19.8592 10.6378 19.7659 10.7029 19.7659 10.8732C19.7659 11.0344 19.8426 11.1051 19.9909 11.1051C20.0904 11.1006 20.1892 11.0861 20.2858 11.0618V10.6752ZM20.2984 11.1513L20.2924 11.1188C20.192 11.1453 20.089 11.1616 19.9852 11.1676C19.9132 11.1729 19.8417 11.1525 19.7839 11.11C19.7175 11.0559 19.6949 10.9687 19.6949 10.8739C19.6949 10.7742 19.7281 10.6805 19.821 10.6297C19.892 10.5941 19.9709 10.5767 20.0506 10.5789C20.1302 10.5799 20.2094 10.5918 20.2858 10.614V10.3584H20.3521V11.1513H20.2984Z" fill="#898B8F"/>
<path d="M21.3259 10.6401C21.2262 10.6444 21.1274 10.6591 21.0309 10.684V11.0686C21.1045 11.0947 21.1823 11.1079 21.2605 11.1074C21.4576 11.1074 21.5508 11.0423 21.5508 10.8719C21.5508 10.7117 21.4745 10.6401 21.3259 10.6401ZM21.4957 11.1171C21.4249 11.1518 21.3466 11.1689 21.2675 11.167C21.1809 11.1664 21.095 11.1523 21.013 11.125L21.0097 11.1513H20.9646V10.3584H21.0309V10.6244C21.1294 10.5997 21.2301 10.5842 21.3315 10.5782C21.4034 10.5733 21.4748 10.5936 21.5329 10.6355C21.5992 10.6896 21.6218 10.7769 21.6218 10.8719C21.6218 10.967 21.5886 11.0654 21.4957 11.1171Z" fill="#898B8F"/>
<path d="M21.7099 11.3649V11.3043C21.743 11.3076 21.7729 11.3098 21.7941 11.3098C21.8764 11.3098 21.9268 11.2864 21.972 11.1949L21.9935 11.1506L21.6949 10.5928H21.7719L22.0264 11.0744H22.0307L22.2725 10.5928H22.3481L22.0283 11.2193C21.97 11.333 21.9069 11.3704 21.7908 11.3704C21.7634 11.3703 21.736 11.3684 21.7089 11.3649" fill="#898B8F"/>
<path d="M23.2647 10.8333H23.0444V11.0287H23.2647C23.4166 11.0287 23.474 11.0121 23.474 10.931C23.474 10.8438 23.395 10.8333 23.2633 10.8333H23.2647ZM23.2235 10.5181H23.0437V10.7168H23.2249C23.3745 10.7168 23.4342 10.6992 23.4342 10.6165C23.4342 10.5279 23.3585 10.5188 23.2235 10.5188V10.5181ZM23.5659 11.101C23.4846 11.1518 23.3867 11.1538 23.2079 11.1538H22.8712V10.395H23.2C23.3542 10.395 23.4488 10.397 23.5274 10.4435C23.5535 10.4588 23.5748 10.481 23.5887 10.5075C23.6027 10.5341 23.6088 10.5639 23.6064 10.5937C23.6064 10.6731 23.5732 10.7262 23.4846 10.7617V10.7659C23.5841 10.7881 23.6478 10.8379 23.6478 10.945C23.6503 10.9756 23.6439 11.0063 23.6294 11.0335C23.6149 11.0607 23.5929 11.0833 23.5659 11.0987" fill="#898B8F"/>
<path d="M24.321 10.9174C24.2546 10.9119 24.1883 10.9087 24.1163 10.9087C24.0005 10.9087 23.9597 10.9318 23.9597 10.9839C23.9597 11.036 23.9929 11.0588 24.0825 11.0588C24.1629 11.0562 24.2429 11.0453 24.321 11.0262V10.9174ZM24.3541 11.1516L24.3498 11.119C24.2492 11.1468 24.1457 11.1632 24.0413 11.1679C23.981 11.1719 23.9209 11.1575 23.8691 11.1268C23.8469 11.1085 23.8297 11.0851 23.8189 11.0586C23.8081 11.0321 23.8042 11.0034 23.8075 10.9751C23.8108 10.9468 23.8212 10.9197 23.8377 10.8963C23.8543 10.8729 23.8765 10.8539 23.9023 10.8409C23.962 10.8132 24.042 10.811 24.1153 10.811C24.1747 10.811 24.2546 10.8142 24.321 10.8188V10.8087C24.321 10.7214 24.2626 10.6928 24.1027 10.6928C24.041 10.6928 23.9654 10.696 23.8934 10.7025V10.5898C23.9733 10.5833 24.0635 10.5791 24.1379 10.5791C24.2374 10.5791 24.3392 10.5866 24.4032 10.6309C24.4673 10.6752 24.4809 10.7393 24.4809 10.822V11.1522L24.3541 11.1516Z" fill="#898B8F"/>
<path d="M25.2222 11.1514V10.8437C25.2222 10.7421 25.1694 10.7056 25.0749 10.7056C24.9964 10.709 24.9185 10.7208 24.8427 10.7408V11.1517H24.6841V10.5936H24.8135L24.8191 10.6291C24.918 10.6005 25.02 10.5834 25.123 10.5783C25.1929 10.5728 25.2624 10.5932 25.3177 10.6356C25.3625 10.6753 25.3794 10.7307 25.3794 10.8101V11.1514H25.2222Z" fill="#898B8F"/>
<path d="M25.8278 11.1671C25.7545 11.1671 25.6745 11.157 25.6161 11.1085C25.5465 11.0532 25.5262 10.9662 25.5262 10.8721C25.5262 10.7838 25.5554 10.6875 25.642 10.6334C25.713 10.5881 25.8006 10.5784 25.8918 10.5784C25.9582 10.5784 26.0212 10.5826 26.0909 10.5891V10.7086C26.0335 10.7031 25.9648 10.6989 25.9097 10.6989C25.7588 10.6989 25.6878 10.7451 25.6878 10.8734C25.6878 10.9936 25.7409 11.0457 25.8646 11.0457C25.9448 11.0431 26.0247 11.0335 26.1031 11.017V11.1316C26.0123 11.1524 25.9197 11.1643 25.8265 11.1671" fill="#898B8F"/>
<path d="M26.5733 10.6953C26.4223 10.6953 26.356 10.7418 26.356 10.8688C26.356 10.9958 26.4223 11.0499 26.5733 11.0499C26.7242 11.0499 26.7882 11.0046 26.7882 10.8776C26.7882 10.7506 26.7242 10.6953 26.5733 10.6953ZM26.8456 11.1085C26.776 11.1548 26.6847 11.1671 26.5733 11.1671C26.4618 11.1671 26.3686 11.1538 26.2999 11.1085C26.2209 11.0577 26.1927 10.9737 26.1927 10.8734C26.1927 10.7731 26.2209 10.6875 26.2999 10.6367C26.3686 10.5914 26.4595 10.5784 26.5733 10.5784C26.687 10.5784 26.776 10.5914 26.8456 10.6367C26.9242 10.6875 26.9514 10.7728 26.9514 10.8721C26.9514 10.9714 26.9232 11.0577 26.8456 11.1085Z" fill="#898B8F"/>
<path d="M27.8673 11.1669C27.7718 11.1669 27.6683 11.1513 27.5906 11.0884C27.4984 11.0132 27.4702 10.8973 27.4702 10.7725C27.4702 10.6608 27.5064 10.5283 27.6265 10.4511C27.72 10.3915 27.8358 10.3792 27.9529 10.3792C28.0385 10.3792 28.1264 10.3847 28.2219 10.3925V10.5283C28.14 10.5218 28.0385 10.5162 27.9599 10.5162C27.7403 10.5162 27.647 10.598 27.647 10.7725C27.647 10.9471 27.7336 11.0298 27.8955 11.0298C28.0112 11.0259 28.1262 11.0107 28.2389 10.9845V11.1193C28.1169 11.147 27.9924 11.1629 27.8673 11.1669Z" fill="#898B8F"/>
<path d="M28.7053 10.6774C28.5726 10.6774 28.5229 10.724 28.5126 10.8077H28.8954C28.8908 10.7172 28.8367 10.6774 28.7053 10.6774ZM28.6814 11.1659C28.5882 11.1659 28.5036 11.1548 28.4406 11.104C28.3776 11.0532 28.3494 10.966 28.3494 10.8709C28.3494 10.7859 28.3776 10.6908 28.4565 10.6354C28.5262 10.5869 28.6151 10.5771 28.7053 10.5771C28.7863 10.5771 28.8818 10.5859 28.9515 10.6335C29.0427 10.6963 29.051 10.7937 29.051 10.9083H28.5116C28.5149 10.9936 28.561 11.0487 28.7209 11.0487C28.8225 11.0465 28.9237 11.0369 29.0238 11.02V11.1294C28.9108 11.1505 28.7964 11.1627 28.6814 11.1659Z" fill="#898B8F"/>
<path d="M29.7574 11.1514V10.8437C29.7574 10.7421 29.7047 10.7056 29.6101 10.7056C29.5317 10.709 29.4538 10.7208 29.3779 10.7408V11.1517H29.2194V10.5936H29.3487L29.3544 10.6291C29.4533 10.6005 29.5553 10.5834 29.6582 10.5783C29.7282 10.5728 29.7977 10.5932 29.853 10.6356C29.8978 10.6753 29.9147 10.7307 29.9147 10.8101V11.1514H29.7574Z" fill="#898B8F"/>
<path d="M30.3668 11.167C30.2902 11.167 30.2205 11.1459 30.1823 11.0872C30.1511 11.0366 30.1365 10.9777 30.1405 10.9186V10.7095H30.0258V10.5936H30.1405L30.1575 10.4246H30.2975V10.5936H30.5214V10.7095H30.2975V10.8886C30.2953 10.9247 30.3006 10.9608 30.313 10.9948C30.33 11.0322 30.3671 11.0465 30.4169 11.0465C30.4549 11.0459 30.4929 11.0422 30.5303 11.0355V11.1472C30.4763 11.1586 30.4214 11.1653 30.3661 11.167" fill="#898B8F"/>
<path d="M30.677 11.1515V10.5937H30.8064L30.812 10.6292C30.9028 10.599 30.9975 10.5819 31.0933 10.5784C31.1001 10.578 31.1068 10.578 31.1136 10.5784V10.7136C31.0956 10.7136 31.0741 10.7136 31.0585 10.7136C30.9833 10.7139 30.9084 10.7235 30.8356 10.7422V11.1542L30.677 11.1515Z" fill="#898B8F"/>
<path d="M31.6911 10.9174C31.6248 10.9119 31.5584 10.9087 31.4861 10.9087C31.3703 10.9087 31.3298 10.9318 31.3298 10.9839C31.3298 11.036 31.363 11.0588 31.4523 11.0588C31.5328 11.0562 31.6129 11.0453 31.6911 11.0262V10.9174ZM31.7243 11.1516L31.7196 11.119C31.619 11.1468 31.5155 11.1632 31.4111 11.1679C31.3508 11.1719 31.2907 11.1575 31.2389 11.1268C31.218 11.1111 31.2014 11.0906 31.1904 11.0671C31.1794 11.0436 31.1744 11.0178 31.1759 10.992C31.1744 10.9603 31.1827 10.9288 31.1999 10.9018C31.217 10.8748 31.2421 10.8536 31.2718 10.8409C31.3315 10.8132 31.4111 10.811 31.4844 10.811C31.5442 10.811 31.6241 10.8142 31.6904 10.8188V10.8087C31.6904 10.7214 31.6317 10.6928 31.4722 10.6928C31.4101 10.6928 31.3348 10.696 31.2628 10.7025V10.5898C31.3428 10.5833 31.4327 10.5791 31.507 10.5791C31.6065 10.5791 31.7084 10.5866 31.7724 10.6309C31.8364 10.6752 31.85 10.7393 31.85 10.822V11.1522L31.7243 11.1516Z" fill="#898B8F"/>
<path d="M32.0531 10.3584H32.212V11.1513H32.0531V10.3584Z" fill="#898B8F"/>
</svg>
