<svg width="35" height="35" viewBox="0 0 35 35" fill="none" xmlns="http://www.w3.org/2000/svg">
<rect x="0.75" y="0.75" width="33.5" height="33.5" rx="16.75" fill="white" stroke="#D2D1D7" stroke-width="1.5"/>
<g clip-path="url(#clip0_3_5638)">
<path d="M12.6114 23.192C11.8754 23.192 11.2087 23.064 10.6114 22.808C10.014 22.5413 9.53404 22.136 9.17138 21.592C8.80871 21.048 8.61671 20.3653 8.59538 19.544H10.6114C10.622 20.088 10.798 20.5467 11.1394 20.92C11.4914 21.2827 11.982 21.464 12.6114 21.464C13.2087 21.464 13.6674 21.2987 13.9874 20.968C14.3074 20.6373 14.4674 20.2213 14.4674 19.72C14.4674 19.1333 14.254 18.6907 13.8274 18.392C13.4114 18.0827 12.8727 17.928 12.2114 17.928H11.3794V16.248H12.2274C12.7714 16.248 13.2247 16.12 13.5874 15.864C13.95 15.608 14.1314 15.2293 14.1314 14.728C14.1314 14.312 13.9927 13.9813 13.7154 13.736C13.4487 13.48 13.0754 13.352 12.5954 13.352C12.0727 13.352 11.662 13.5067 11.3634 13.816C11.0754 14.1253 10.9154 14.504 10.8834 14.952H8.88338C8.92604 13.9173 9.28338 13.1013 9.95538 12.504C10.638 11.9067 11.518 11.608 12.5954 11.608C13.3634 11.608 14.0087 11.7467 14.5314 12.024C15.0647 12.2907 15.4647 12.648 15.7314 13.096C16.0087 13.544 16.1474 14.04 16.1474 14.584C16.1474 15.2133 15.9714 15.7467 15.6194 16.184C15.278 16.6107 14.8514 16.8987 14.3394 17.048C14.9687 17.176 15.4807 17.4853 15.8754 17.976C16.27 18.456 16.4674 19.064 16.4674 19.8C16.4674 20.4187 16.318 20.984 16.0194 21.496C15.7207 22.008 15.2834 22.4187 14.7074 22.728C14.142 23.0373 13.4434 23.192 12.6114 23.192ZM21.912 23.192C21.1333 23.192 20.4773 23.0427 19.944 22.744C19.4107 22.4347 18.9947 22.0347 18.696 21.544C18.3973 21.0533 18.2213 20.5253 18.168 19.96H20.072C20.1573 20.4507 20.36 20.8293 20.68 21.096C21.0107 21.3627 21.4267 21.496 21.928 21.496C22.6427 21.496 23.2187 21.1707 23.656 20.52C24.0933 19.8587 24.328 18.856 24.36 17.512C24.104 17.9493 23.7147 18.312 23.192 18.6C22.68 18.888 22.1147 19.032 21.496 19.032C20.8773 19.032 20.296 18.8827 19.752 18.584C19.208 18.2853 18.7653 17.864 18.424 17.32C18.0827 16.776 17.912 16.136 17.912 15.4C17.912 14.728 18.0773 14.104 18.408 13.528C18.7387 12.952 19.1973 12.488 19.784 12.136C20.3707 11.784 21.0587 11.608 21.848 11.608C22.6907 11.608 23.4 11.7627 23.976 12.072C24.552 12.3813 25.0107 12.7973 25.352 13.32C25.704 13.8427 25.9547 14.424 26.104 15.064C26.264 15.704 26.344 16.36 26.344 17.032C26.344 18.28 26.168 19.368 25.816 20.296C25.4747 21.2133 24.968 21.928 24.296 22.44C23.6347 22.9413 22.84 23.192 21.912 23.192ZM21.976 17.304C22.3707 17.304 22.728 17.2187 23.048 17.048C23.368 16.8667 23.6187 16.632 23.8 16.344C23.9813 16.0453 24.072 15.7147 24.072 15.352C24.072 14.776 23.8693 14.3013 23.464 13.928C23.0693 13.5547 22.568 13.368 21.96 13.368C21.3627 13.368 20.8667 13.5547 20.472 13.928C20.0773 14.2907 19.88 14.7547 19.88 15.32C19.88 15.9173 20.0773 16.3973 20.472 16.76C20.8667 17.1227 21.368 17.304 21.976 17.304Z" fill="#8F8F9F"/>
</g>
<defs>
<clipPath id="clip0_3_5638">
<rect width="35" height="35" fill="white"/>
</clipPath>
</defs>
</svg>
