<svg width="35" height="35" viewBox="0 0 35 35" fill="none" xmlns="http://www.w3.org/2000/svg">
<rect x="2" y="2" width="31" height="31" rx="15.5" fill="white" stroke="#2F1893" stroke-width="4"/>
<g clip-path="url(#clip0_3_5641)">
<path d="M14.0127 23V20.92H8.49269V19.288L13.7407 11.8H16.0607V19.144H17.5327V20.92H16.0607V23H14.0127ZM10.6847 19.144H14.1407V14.056L10.6847 19.144ZM18.8707 23V21.512C19.5534 20.9467 20.2147 20.3867 20.8547 19.832C21.5054 19.2773 22.0814 18.728 22.5827 18.184C23.0947 17.64 23.5 17.112 23.7987 16.6C24.108 16.0773 24.2627 15.5707 24.2627 15.08C24.2627 14.6213 24.1347 14.216 23.8787 13.864C23.6334 13.512 23.2227 13.336 22.6467 13.336C22.06 13.336 21.6174 13.528 21.3187 13.912C21.02 14.296 20.8707 14.76 20.8707 15.304H18.8867C18.908 14.4827 19.0894 13.8 19.4307 13.256C19.772 12.7013 20.2254 12.2907 20.7907 12.024C21.356 11.7467 21.9907 11.608 22.6947 11.608C23.836 11.608 24.7214 11.9227 25.3507 12.552C25.9907 13.1707 26.3107 13.976 26.3107 14.968C26.3107 15.5867 26.1667 16.1893 25.8787 16.776C25.6014 17.3627 25.2334 17.928 24.7747 18.472C24.316 19.016 23.82 19.528 23.2867 20.008C22.7534 20.4773 22.236 20.9147 21.7347 21.32H26.5827V23H18.8707Z" fill="#2F1893"/>
</g>
<defs>
<clipPath id="clip0_3_5641">
<rect width="35" height="35" fill="white"/>
</clipPath>
</defs>
</svg>
