<svg width="35" height="35" viewBox="0 0 35 35" fill="none" xmlns="http://www.w3.org/2000/svg">
<rect x="0.75" y="0.75" width="33.5" height="33.5" rx="16.75" fill="#EDEDED" stroke="#D2D1D7" stroke-width="1.5"/>
<g clip-path="url(#clip0_3_5639)">
<path d="M12.9032 22.9999V20.9199H7.38319V19.2879L12.6312 11.7999H14.9512V19.1439H16.4232V20.9199H14.9512V22.9999H12.9032ZM9.57519 19.1439H13.0312V14.0559L9.57519 19.1439ZM22.6252 23.1919C21.5905 23.1919 20.7052 22.9519 19.9692 22.4719C19.2332 21.9813 18.6625 21.3039 18.2572 20.4399C17.8625 19.5653 17.6652 18.5519 17.6652 17.3999C17.6652 16.2586 17.8625 15.2506 18.2572 14.3759C18.6625 13.5013 19.2332 12.8239 19.9692 12.3439C20.7052 11.8533 21.5905 11.6079 22.6252 11.6079C23.6599 11.6079 24.5452 11.8533 25.2812 12.3439C26.0172 12.8239 26.5825 13.5013 26.9772 14.3759C27.3825 15.2506 27.5852 16.2586 27.5852 17.3999C27.5852 18.5519 27.3825 19.5653 26.9772 20.4399C26.5825 21.3039 26.0172 21.9813 25.2812 22.4719C24.5452 22.9519 23.6599 23.1919 22.6252 23.1919ZM22.6252 21.3519C23.4679 21.3519 24.1559 20.9999 24.6892 20.2959C25.2225 19.5919 25.4892 18.6266 25.4892 17.3999C25.4892 16.1733 25.2225 15.2079 24.6892 14.5039C24.1559 13.7999 23.4679 13.4479 22.6252 13.4479C21.7719 13.4479 21.0785 13.7999 20.5452 14.5039C20.0225 15.2079 19.7612 16.1733 19.7612 17.3999C19.7612 18.6266 20.0225 19.5919 20.5452 20.2959C21.0785 20.9999 21.7719 21.3519 22.6252 21.3519Z" fill="#D2D1D7"/>
</g>
<line x1="5.12626" y1="6.01009" x2="28.9899" y2="29.8737" stroke="#D2D1D7"/>
<defs>
<clipPath id="clip0_3_5639">
<rect width="35" height="35" fill="white"/>
</clipPath>
</defs>
</svg>
