<svg width="14" height="13" viewBox="0 0 14 13" fill="none" xmlns="http://www.w3.org/2000/svg">
<path d="M2.125 1.08333V4.33333H5.375" stroke="white" stroke-width="1.5" stroke-linecap="round" stroke-linejoin="round"/>
<path d="M11.875 6.5C11.8741 5.5593 11.6011 4.63893 11.0889 3.84992C10.5767 3.0609 9.8471 2.43694 8.98818 2.05329C8.12927 1.66964 7.17769 1.54269 6.24824 1.68776C5.31879 1.83282 4.45116 2.2437 3.75 2.87083L2.125 4.33333" stroke="white" stroke-width="1.5" stroke-linecap="round" stroke-linejoin="round"/>
<path d="M11.875 11.9167V8.66667H8.625" stroke="white" stroke-width="1.5" stroke-linecap="round" stroke-linejoin="round"/>
<path d="M2.125 6.5C2.12586 7.4407 2.39887 8.36107 2.9111 9.15008C3.42333 9.9391 4.1529 10.5631 5.01182 10.9467C5.87073 11.3304 6.82231 11.4573 7.75176 11.3122C8.68121 11.1672 9.54884 10.7563 10.25 10.1292L11.875 8.66667" stroke="white" stroke-width="1.5" stroke-linecap="round" stroke-linejoin="round"/>
</svg>
