<svg width="21" height="20" viewBox="0 0 21 20" fill="none" xmlns="http://www.w3.org/2000/svg">
<path d="M17.1206 6.65334C17.1274 6.80001 17.1274 6.94001 17.1274 7.08668C17.1341 11.5334 13.6952 16.6667 7.40627 16.6667C5.55141 16.6667 3.7304 16.14 2.16663 15.1534C2.43741 15.1867 2.70819 15.2 2.97897 15.2C4.51567 15.2 6.01174 14.6934 7.22349 13.7534C5.76126 13.7267 4.47505 12.7867 4.02826 11.4134C4.54274 11.5134 5.07077 11.4934 5.57172 11.3534C3.98087 11.0467 2.83681 9.66669 2.83004 8.06001C2.83004 8.04668 2.83004 8.03335 2.83004 8.02001C3.30391 8.28001 3.83871 8.42668 4.38027 8.44001C2.8842 7.45334 2.4171 5.48667 3.32422 3.94667C5.064 6.05334 7.6229 7.32668 10.3713 7.46668C10.0938 6.30001 10.4729 5.07334 11.3597 4.24667C12.7339 2.97333 14.9002 3.04 16.1999 4.39333C16.9649 4.24667 17.7028 3.96667 18.373 3.57333C18.1157 4.35333 17.5809 5.01334 16.8701 5.43334C17.5471 5.35334 18.2105 5.17334 18.8333 4.90667C18.373 5.58667 17.7908 6.17334 17.1206 6.65334Z" fill="white"/>
</svg>
