<svg width="34" height="12" viewBox="0 0 34 12" fill="none" xmlns="http://www.w3.org/2000/svg">
<path d="M14.9252 10.992H12.2133L13.9095 0.981445H16.6213L14.9252 10.992Z" fill="#15195A"/>
<path d="M24.756 1.22624C24.2211 1.02369 23.3727 0.800049 22.3236 0.800049C19.6455 0.800049 17.7596 2.16311 17.748 4.11188C17.7258 5.54968 19.0983 6.34826 20.1248 6.82767C21.174 7.31755 21.5307 7.6373 21.5307 8.07396C21.52 8.74459 20.6828 9.05372 19.9021 9.05372C18.8193 9.05372 18.2392 8.89434 17.3576 8.52123L17.0005 8.36129L16.621 10.6084C17.257 10.885 18.4289 11.1304 19.6455 11.1412C22.491 11.1412 24.3436 9.79923 24.3655 7.72251C24.3763 6.58294 23.6516 5.70976 22.0891 4.99624C21.1406 4.53821 20.5598 4.22936 20.5598 3.76071C20.5709 3.33466 21.0511 2.89829 22.1218 2.89829C23.0034 2.87691 23.6512 3.07918 24.1419 3.28159L24.3872 3.38788L24.756 1.22624Z" fill="#15195A"/>
<path fill-rule="evenodd" clip-rule="evenodd" d="M29.6102 0.981445H31.7079L33.8957 10.9918H31.3847C31.3847 10.9918 31.139 9.84163 31.0611 9.49018H27.5792C27.4786 9.75628 27.0101 10.9918 27.0101 10.9918H24.1646L28.1928 1.81202C28.4719 1.16234 28.9633 0.981445 29.6102 0.981445ZM29.4431 4.64472C29.4431 4.64472 28.5837 6.87049 28.3603 7.44558H30.6145C30.5029 6.94508 29.9894 4.5489 29.9894 4.5489L29.7999 3.68633C29.72 3.90845 29.6046 4.21382 29.5268 4.41979C29.474 4.55942 29.4385 4.65336 29.4431 4.64472Z" fill="#15195A"/>
<path fill-rule="evenodd" clip-rule="evenodd" d="M0.46285 0.981445H4.82606C5.41747 1.00254 5.89736 1.18357 6.05352 1.82292L7.00175 6.42227C7.00184 6.42258 7.00194 6.4229 7.00204 6.42322L7.29226 7.80765L9.94812 0.981445H12.8157L8.55308 10.9813H5.68531L3.26817 2.28309C2.43419 1.81772 1.48239 1.44345 0.418213 1.18371L0.46285 0.981445Z" fill="#15195A"/>
</svg>
