<svg width="21" height="20" viewBox="0 0 21 20" fill="none" xmlns="http://www.w3.org/2000/svg">
<path fill-rule="evenodd" clip-rule="evenodd" d="M17.0214 4.52359C17.7354 4.71581 18.2983 5.27871 18.4905 5.99265C18.8475 7.29695 18.8337 10.0154 18.8337 10.0154C18.8337 10.0154 18.8337 12.7201 18.4905 14.0244C18.2983 14.7383 17.7354 15.3012 17.0214 15.4935C15.7171 15.8367 10.4999 15.8367 10.4999 15.8367C10.4999 15.8367 5.29646 15.8367 3.97843 15.4797C3.2645 15.2875 2.70159 14.7246 2.50937 14.0107C2.16614 12.7201 2.16614 10.0017 2.16614 10.0017C2.16614 10.0017 2.16614 7.29695 2.50937 5.99265C2.70159 5.27871 3.27823 4.70208 3.97843 4.50986C5.28273 4.16663 10.4999 4.16663 10.4999 4.16663C10.4999 4.16663 15.7171 4.16663 17.0214 4.52359ZM13.1769 10.0017L8.83836 12.5004V7.50291L13.1769 10.0017Z" fill="white"/>
</svg>
